<svg width="422" height="211" viewBox="0 0 422 211" fill="none" xmlns="http://www.w3.org/2000/svg">
<path d="M112.8 105.4H91.4C91.4 105.4 96.1 113.9 88.9 129.4C81.6 144.9 62.4 186.2 62.4 186.2L33.8 127.5C32 123.7 27.1 111.6 27.9 106.6L28.1 105.4H0.8L0 107.1C0 107.1 2.8 108.8 6.1 114C11.2 121.9 16.3 131.4 18.9 136.1C18.9 136.1 50.4 199 51.1 200.5C53 204.3 54.4 207.1 55.3 209.9L55.5 210.6H61L102.4 123.6C103.5 121.4 105.3 117.9 107.5 114.1C110.7 108.8 113.6 107.1 113.6 107.1L112.8 105.4Z" fill="#404041"/>
<path d="M365.799 105.4H360.299L318.899 192.4C317.099 196 309.699 210.6 309.699 210.6H329.999C329.999 210.6 325.299 202.1 332.499 186.6C339.799 171.1 358.999 129.8 358.999 129.8L387.599 188.5C389.399 192.3 394.299 204.4 393.499 209.4L393.299 210.6H420.599L421.399 208.8C421.399 208.8 418.599 207.1 415.299 201.9C410.199 194 405.099 184.5 402.499 179.8C402.499 179.8 370.999 116.9 370.299 115.4C368.399 111.6 366.799 108.1 365.799 105.4Z" fill="#404041"/>
<path d="M304.799 195.9L302.199 195.1C302.199 195.1 286.599 201.1 265.199 202C265.099 202 253.399 202.4 247.899 202.4C247.499 198.2 247.299 192.3 247.299 184.7C247.299 184.7 246.999 129.2 246.999 128.2C247.399 113.4 250.799 107.9 251.299 107.1L250.499 105.3H227.999L227.199 107.1C227.699 107.9 230.999 113.2 231.499 127.5C231.499 128.8 230.799 184.8 230.799 184.8C230.799 202 227.699 208.1 227.199 209L227.999 210.8H241.999H297.199L304.799 195.9Z" fill="#404041"/>
<path d="M144.5 202.3C143.5 197.6 143.1 191.8 143.1 184.7L142.8 131.3C142.8 124.3 143.6 118.4 144.5 113.8C158.2 113.6 176.4 113.4 189.7 116.5C199.9 118.5 207.7 121 207.7 121L210.3 120.2L202.8 105.4H123.8L123 107.2C123.5 108.1 127.3 114.1 127.4 130.7C127.4 131 126.7 184.8 126.7 184.8C126.7 202 123.6 208.1 123.1 209L123.9 210.8H202.9L210.4 196L207.8 195.2C207.8 195.2 193.7 200.6 173.9 202C164.2 202.6 153.2 202.4 144.5 202.3Z" fill="#404041"/>
<path d="M187.699 150.6C187.699 150.6 181.199 153.1 172.199 153.7C170.399 153.8 168.599 153.9 166.699 153.9H151.199V161L152.799 162.2H188.799V151L187.699 150.6Z" fill="#404041"/>
<path d="M210.7 4C235 4 238.6 29.6 238.6 35.7L240.5 38H249.5C249.5 17.1 231.9 0 210.8 0C189.6 0 172 17.2 172 38H181L182.9 35.7C182.8 29.6 186.4 4 210.7 4Z" fill="#404041"/>
<path d="M210.7 37.1002C212.9 37.1002 216.7 40.1002 221.8 44.5002C226.9 48.9002 233.2 52.7002 242.6 52.7002H249.4V47.2002L247.6 44.9002H242C238 44.9002 234.1 43.8002 230.7 41.7002L212.9 30.7002H208.6L190.8 41.7002C187.4 43.8002 183.5 44.9002 179.5 44.9002H173.8L172 47.2002V52.7002H178.8C188.2 52.7002 194.6 48.9002 199.6 44.5002C204.7 40.1002 208.5 37.1002 210.7 37.1002Z" fill="#404041"/>
</svg>
